<svg width="274px" height="56px" id="Layer_1" data-name="Layer 1" xmlns="http://www.w3.org/2000/svg" viewBox="0 0 1054.61 207.36"><defs><style>.cls-1{fill:#004f56;}</style></defs><path class="cls-1" d="M492.6,142.63h0l0,0Z"/><path class="cls-1" d="M492.66,142.6l0,0h0Z"/><path class="cls-1" d="M1037.33,18.12V8.28h-3.67V7h8.84V8.28h-3.69v9.84Z"/><path class="cls-1" d="M1044,18.12V7h2.22l2.64,7.9c.24.74.42,1.29.53,1.65.13-.4.33-1,.6-1.79L1052.63,7h2V18.12h-1.42V8.78L1050,18.12h-1.33l-3.23-9.5v9.5Z"/><path class="cls-1" d="M698.86,60.92V36.13h-20.8V5.26L652.85,9.13V19.75c0,9.24-5,16.38-16,16.38h-5.25V60.92h18.7V109c0,20,12.6,31.93,32.76,31.93h15.76V116.17h-8.62c-8,0-12.18-2.94-12.18-12V60.92Z"/><path class="cls-1" d="M874.84,36.54c-2.12-.2-4.21-.41-6.52-.41-8.82,0-23.11,1.68-29.41,15.34V36.13l-27.1,4.15v99.21h27.94V92.22C839.75,70,852.15,63,866.43,63h8.41Z"/><path class="cls-1" d="M946.8,36.54c-2.12-.2-4.21-.41-6.52-.41-8.82,0-23.11,1.68-29.42,15.34V36.13l-27.09,4.15v99.21h27.94V92.22C911.71,70,924.11,63,938.39,63h8.41Z"/><path class="cls-1" d="M537.5,86.55C537.5,53.36,518.38,33,486.45,33c-26.47,0-50.84,21.42-50.84,54.4,0,34.87,25,55.25,53.36,55.25,28,0,47.37-20.65,47.37-37.18h-24.7c-3.69,7.87-10.65,13.23-22.46,13.23-13.87,0-25.42-9.88-26.06-23.52h74C537.07,94.74,537.5,90.54,537.5,86.55Zm-73.74-10.5c.63-9.45,8.62-20.39,23.11-20.39,16,0,22.69,10.09,23.11,20.39Z"/><path class="cls-1" d="M803.57,86.55c0-33.19-19.12-53.56-51.05-53.56-26.46,0-50.83,21.42-50.83,54.4,0,34.87,25,55.25,53.35,55.25,28,0,47.37-20.65,47.37-37.18h-24.7c-3.69,7.87-10.65,13.23-22.46,13.23-13.87,0-25.42-9.88-26-23.52h73.94C803.14,94.74,803.57,90.54,803.57,86.55Zm-73.74-10.5c.63-9.45,8.62-20.39,23.11-20.39,16,0,22.69,10.09,23.11,20.39Z"/><path class="cls-1" d="M626.47,108.6c0,16.81-13,34-40.09,34h0c-28,0-43.51-17.12-43.51-37.18h24.39a16.56,16.56,0,0,0,5.12,11c3.12,2.92,7.7,4.81,13.79,4.81,9.24,0,13.66-4.84,13.66-10.3,0-4.62-3.16-8.4-11.13-10.08L575,97.68c-20-4.4-29-16.38-29-30.87C546,48.31,562.41,33,584.66,33c28.88,0,38.93,18,40.46,29.21l-23.69,3.61c-1.53-5.59-6.2-11.62-16.56-11.62-7.35,0-13.22,4.42-13.22,10.3a8,8,0,0,0,2.06,5.56,12.87,12.87,0,0,0,7.38,3.69l14.72,3.14C616.18,81.09,626.47,93.49,626.47,108.6Z"/><path class="cls-1" d="M1042.26,104.2l0-31.93c0-20.8-12.19-39.28-44.95-39.28-26.17,0-40.91,15.89-43.9,31.27l25.2,3.86c2.25-7.14,8.64-12.66,18.91-12.66,11.75,0,17.44,6.1,17.44,13.45a6.6,6.6,0,0,1-1.55,4.53c-1.18,1.37-3.17,2.38-6.24,2.82L981.78,80c-17.23,2.52-30.88,12.81-30.88,31.3,0,16.17,13.45,31.08,35.51,31.08,14.25,0,25.44-6.47,32.33-15.93C1024,135.75,1034,141,1047.31,141h7.14V116.17C1046.47,116.17,1042.26,113.23,1042.26,104.2ZM1015,97.68c0,18.27-10.92,23.95-22.69,23.95-9,0-13.45-5.89-13.45-12,0-8,5.67-12,12.82-13L1015,93.07Z"/><polygon class="cls-1" points="420.76 5.26 394.79 88.69 369.08 9.34 367.8 5.26 342.7 5.26 315.67 88.71 290.83 8.83 289.7 5.26 261 5.26 302.35 139.6 328.38 139.6 355.23 55.76 380.93 136.05 382.06 139.6 408.11 139.6 447.15 12.79 449.44 5.26 420.76 5.26"/><path class="cls-1" d="M332.34,192.16a13.44,13.44,0,0,1-13.54,10.18c-7.31,0-15.17-5.24-15.17-16.74s7.86-16.68,15.17-16.68c6.88,0,11.71,3.64,13.25,10l.06.26,5-1.73-.06-.22C335,169,328,164,318.8,164a20.63,20.63,0,0,0-14.13,5.6c-4.2,4-6.41,9.54-6.41,16,0,14.25,10.33,21.7,20.54,21.7,9.05,0,16.07-5.15,18.32-13.44l.06-.21-4.76-1.74Z"/><path class="cls-1" d="M347.75,181.81v-5.39h-4.89v30.06h5V190.92c0-6.78,3.45-9.67,8.47-9.67a9.27,9.27,0,0,1,2.64.31v-5.33a8.82,8.82,0,0,0-2.14-.25A9.56,9.56,0,0,0,347.75,181.81Z"/><path class="cls-1" d="M376.1,175.54c-7.6,0-14.25,6.34-14.25,15.81,0,10.11,6.84,16,14.87,16a13.55,13.55,0,0,0,13.37-9.42l-4.33-1.56a8.89,8.89,0,0,1-9,6.46,9.56,9.56,0,0,1-9.73-9.79v-.25h23.17a14.18,14.18,0,0,0,.12-1.76C390.28,181.88,385.2,175.54,376.1,175.54Zm-9,13a9,9,0,0,1,9-8.54c5.71,0,8.79,3.77,8.91,8.54Z"/><path class="cls-1" d="M423.3,164.55h-5v16.7c-1-2.51-4-5.71-9.73-5.71-8.41,0-13.94,7.15-13.94,15.88,0,8.91,5.28,15.94,13.94,15.94a10.59,10.59,0,0,0,9.85-6v.82a27,27,0,0,0,.32,4.33h4.89a38.39,38.39,0,0,1-.31-5.65ZM409,202.84c-5.65,0-9.35-4.77-9.35-11.42s3.64-11.36,9.35-11.36,9.41,4.7,9.41,11.36S414.64,202.84,409,202.84Z"/><path class="cls-1" d="M433.09,160.79a3.77,3.77,0,1,0,3.77,3.76A3.77,3.77,0,0,0,433.09,160.79Z"/><rect class="cls-1" x="430.58" y="176.42" width="5.02" height="30.07"/><path class="cls-1" d="M452.05,164.14l-4.71,1.26v6.43c0,2.83-1.32,4.59-4.39,4.59H441v4.52h6v17.32c0,5.46,3.2,8.54,8.16,8.54a13,13,0,0,0,3.95-.57V202a12,12,0,0,1-2.51.32c-3.2,0-4.58-1.57-4.58-4.71V180.94h7.09v-4.52h-7.09Z"/><path class="cls-1" d="M507.7,191.29c0,7.16-3.77,11.24-10.48,11.24s-10.49-4.08-10.49-11.24V164.55h-5.27v26.87c0,10.35,6.72,15.94,15.76,15.94S513,201.77,513,191.42V164.55H507.7Z"/><path class="cls-1" d="M534.94,175.54a10.44,10.44,0,0,0-9.41,5.4v-4.52h-4.9v30.06h5v-17.7c0-4.71,2.7-8.72,7.53-8.72,5.47,0,7.47,3.51,7.47,7.9v18.52h5V187.21C545.68,180.68,542.16,175.54,534.94,175.54Z"/><path class="cls-1" d="M555.72,160.79a3.77,3.77,0,1,0,3.77,3.76A3.77,3.77,0,0,0,555.72,160.79Z"/><rect class="cls-1" x="553.21" y="176.42" width="5.02" height="30.07"/><path class="cls-1" d="M579.76,175.54c-8.66,0-15.06,6.65-15.06,15.88s6.4,15.94,15.06,15.94,15.07-6.65,15.07-15.94S588.43,175.54,579.76,175.54Zm0,27.3c-5.4,0-10-4.08-10-11.42s4.64-11.36,10-11.36,10,4.08,10,11.36S585.16,202.84,579.76,202.84Z"/><path class="cls-1" d="M615.6,175.54a10.45,10.45,0,0,0-9.41,5.4v-4.52h-4.9v30.06h5v-17.7c0-4.71,2.7-8.72,7.54-8.72,5.46,0,7.47,3.51,7.47,7.9v18.52h5V187.21C626.34,180.68,622.82,175.54,615.6,175.54Z"/><path class="cls-1" d="M112,149.33,94.82,166.46a16.14,16.14,0,0,1-22.79,0L5.12,99.55A19.74,19.74,0,0,1,0,90.7H53Z"/><path class="cls-1" d="M237.8,90.7a19.69,19.69,0,0,1-5.11,8.83s0,0,0,0l-67,66.94a16.09,16.09,0,0,1-22.74,0L66.6,90.7H123l31.27,29.19L184.85,90.7Z"/><path class="cls-1" d="M237.82,80.52H184.93L126,21.89,143.09,4.76a16.1,16.1,0,0,1,22.77,0l66.82,66.82A19.68,19.68,0,0,1,237.82,80.52Z"/><path class="cls-1" d="M171.11,80.52H114.7L83.43,51.33,52.87,80.52H0a19.73,19.73,0,0,1,5.11-8.93l0,0L72.08,4.71a16.1,16.1,0,0,1,22.73,0Z"/></svg>