<svg xmlns="http://www.w3.org/2000/svg" xmlns:xlink="http://www.w3.org/1999/xlink" viewBox="0 0 243 153"><defs><style>.cls-1{isolation:isolate;}.cls-2{fill:#101820;}.cls-3{fill:#fff;}.cls-4{mix-blend-mode:screen;opacity:0.1;fill:url(#linear-gradient);}</style><linearGradient id="linear-gradient" x1="121.5" x2="121.5" y2="153" gradientUnits="userSpaceOnUse"><stop offset="0" stop-color="#fff"/><stop offset="0.22" stop-color="#b6b6b6"/><stop offset="0.43" stop-color="#757575"/><stop offset="0.62" stop-color="#434343"/><stop offset="0.78" stop-color="#1e1e1e"/><stop offset="0.91" stop-color="#080808"/><stop offset="1"/></linearGradient></defs><g class="cls-1"><g id="BG"><path class="cls-2" d="M234,0H9S0,0,0,9V144s0,9,9,9H234s9,0,9-9V9S243,0,234,0Z"/><path class="cls-3" d="M180.08,115.2v3.19H179v-7.8h2.84a2.31,2.31,0,1,1,0,4.61Zm1.56-1c.94,0,1.51-.51,1.51-1.32a1.33,1.33,0,0,0-1.51-1.35h-1.56v2.67Z"/><path class="cls-3" d="M185.62,118.39v-7.8h1.08v6.79h3.69v1Z"/><path class="cls-3" d="M196.22,116.21h-3.46l-.82,2.18h-1.16l3.1-7.8h1.25l3.1,7.8h-1.17Zm-3.07-1h2.68l-1.35-3.5Z"/><path class="cls-3" d="M202.3,111.59v6.8h-1.08v-6.8h-2.61v-1h6.3v1Z"/><path class="cls-3" d="M206.15,118.39v-7.8h1.1v7.8Z"/><path class="cls-3" d="M214.63,118.39,210.42,112v6.36h-1.08v-7.8h1.44l3.89,6v-6h1.08v7.8Z"/><path class="cls-3" d="M217.77,115.73v-5.14h1.06v5.11a1.74,1.74,0,1,0,3.47,0v-5.11h1.08v5.14a2.81,2.81,0,1,1-5.61,0Z"/><path class="cls-3" d="M232.75,118.39v-6.07l-2.66,6.07h-1l-2.65-6.07v6.07h-1.06v-7.8h1.46l2.75,6.35,2.77-6.35h1.45v7.8Z"/></g><g id="GRAD"><path class="cls-4" d="M234,0H9S0,0,0,9V144s0,9,9,9H234s9,0,9-9V9S243,0,234,0Z"/></g><g id="ARTWORK"><path class="cls-3" d="M122.77,17.3v-1h-.39v-.14h.93v.14h-.39v1Z"/><path class="cls-3" d="M123.47,17.3V16.12h.23L124,17l.06.18a1.83,1.83,0,0,1,.06-.19l.28-.82h.21V17.3h-.15v-1l-.34,1H124l-.34-1v1Z"/><path class="cls-3" d="M87,21.82V19.2H84.82V15.94l-2.66.41v1.12a1.58,1.58,0,0,1-1.69,1.73h-.56v2.62h2V26.9a3.16,3.16,0,0,0,3.46,3.37H87V27.66H86.1c-.84,0-1.28-.32-1.28-1.27V21.82Z"/><path class="cls-3" d="M105.6,19.24c-.22,0-.44,0-.69,0a3.15,3.15,0,0,0-3.1,1.62V19.2L99,19.64V30.12h3v-5c0-2.36,1.31-3.09,2.81-3.09h.89Z"/><path class="cls-3" d="M113.2,19.24c-.22,0-.44,0-.68,0a3.16,3.16,0,0,0-3.11,1.62V19.2l-2.86.44V30.12h3v-5c0-2.36,1.31-3.09,2.82-3.09h.88Z"/><path class="cls-3" d="M70,24.53c0-3.51-2-5.66-5.39-5.66a5.48,5.48,0,0,0-5.37,5.75,5.53,5.53,0,0,0,5.64,5.83c3,0,5-2.18,5-3.93H67.24a2.39,2.39,0,0,1-2.37,1.4,2.65,2.65,0,0,1-2.75-2.48h7.81C69.93,25.39,70,25,70,24.53Zm-7.79-1.11a2.37,2.37,0,0,1,2.44-2.16,2.19,2.19,0,0,1,2.44,2.16Z"/><path class="cls-3" d="M98.08,24.53c0-3.51-2-5.66-5.4-5.66a5.48,5.48,0,0,0-5.37,5.75A5.53,5.53,0,0,0,93,30.45c3,0,5-2.18,5-3.93H95.34A2.38,2.38,0,0,1,93,27.92a2.66,2.66,0,0,1-2.75-2.48H98C98,25.39,98.08,25,98.08,24.53Zm-7.79-1.11a2.36,2.36,0,0,1,2.44-2.16,2.21,2.21,0,0,1,2.44,2.16Z"/><path class="cls-3" d="M79.37,26.86c0,1.77-1.37,3.59-4.24,3.59h0c-3,0-4.59-1.81-4.59-3.93h2.57a1.78,1.78,0,0,0,.54,1.16,2.08,2.08,0,0,0,1.46.51c1,0,1.44-.51,1.44-1.09s-.33-.89-1.17-1.06l-1.45-.34c-2.1-.46-3.06-1.73-3.06-3.26A3.8,3.8,0,0,1,75,18.87c3,0,4.11,1.9,4.28,3.08l-2.51.39A1.65,1.65,0,0,0,75,21.11a1.26,1.26,0,0,0-1.4,1.09.83.83,0,0,0,.22.58,1.29,1.29,0,0,0,.78.39l1.55.34C78.28,24,79.37,25.26,79.37,26.86Z"/><path class="cls-3" d="M123.29,26.39V23c0-2.2-1.29-4.15-4.75-4.15-2.76,0-4.32,1.68-4.64,3.3l2.67.41a1.94,1.94,0,0,1,2-1.34c1.24,0,1.85.65,1.85,1.42a.69.69,0,0,1-.17.48,1,1,0,0,1-.66.3l-2.68.4c-1.82.27-3.26,1.35-3.26,3.31a3.45,3.45,0,0,0,3.75,3.28,4.13,4.13,0,0,0,3.41-1.68,3.28,3.28,0,0,0,3,1.52h.75V27.66C123.73,27.66,123.29,27.34,123.29,26.39Zm-2.88-.69a2.22,2.22,0,0,1-2.4,2.53A1.28,1.28,0,0,1,116.59,27a1.38,1.38,0,0,1,1.35-1.38l2.47-.37Z"/><polygon class="cls-3" points="57.64 15.94 54.9 24.75 52.18 16.37 52.05 15.94 49.4 15.94 46.54 24.75 43.92 16.32 43.8 15.94 40.77 15.94 45.13 30.13 47.88 30.13 50.72 21.27 53.43 29.75 53.55 30.13 56.3 30.13 60.43 16.74 60.67 15.94 57.64 15.94"/><path class="cls-3" d="M48.3,35.68a1.41,1.41,0,0,1-1.43,1.08,1.77,1.77,0,0,1,0-3.53,1.33,1.33,0,0,1,1.4,1.05v0l.53-.18v0a1.88,1.88,0,0,0-1.93-1.4,2.2,2.2,0,0,0-1.49.59A2.31,2.31,0,0,0,44.7,35a2.16,2.16,0,0,0,2.17,2.29,1.91,1.91,0,0,0,1.94-1.42v0l-.5-.18Z"/><path class="cls-3" d="M49.93,34.59V34h-.52v3.17h.53V35.55c0-.72.37-1,.9-1a1.33,1.33,0,0,1,.28,0V34a1.17,1.17,0,0,0-.23,0A1,1,0,0,0,49.93,34.59Z"/><path class="cls-3" d="M52.92,33.93A1.69,1.69,0,0,0,53,37.29a1.44,1.44,0,0,0,1.41-1l-.46-.16a.92.92,0,0,1-.95.68,1,1,0,0,1-1-1v0h2.45s0-.12,0-.19A1.46,1.46,0,0,0,52.92,33.93ZM52,35.3a1,1,0,0,1,1-.9.87.87,0,0,1,.94.9Z"/><path class="cls-3" d="M57.91,32.77h-.53v1.76a1,1,0,0,0-1-.6,1.69,1.69,0,0,0,0,3.36,1.12,1.12,0,0,0,1-.64v.09a3.48,3.48,0,0,0,0,.45h.52a4.48,4.48,0,0,1,0-.59Zm-1.51,4c-.6,0-1-.5-1-1.21s.38-1.2,1-1.2,1,.5,1,1.2S57,36.81,56.4,36.81Z"/><path class="cls-3" d="M58.94,32.37a.4.4,0,0,0,0,.79.4.4,0,1,0,0-.79Z"/><rect class="cls-3" x="58.68" y="34.02" width="0.53" height="3.18"/><path class="cls-3" d="M61,32.72l-.5.14v.67A.43.43,0,0,1,60,34h-.2v.48h.63v1.83a.82.82,0,0,0,.87.9,1.35,1.35,0,0,0,.41-.06v-.45a1.56,1.56,0,0,1-.26,0c-.34,0-.48-.17-.48-.5V34.5h.74V34H61Z"/><path class="cls-3" d="M66.82,35.59a1.11,1.11,0,1,1-2.21,0V32.77h-.56V35.6a1.67,1.67,0,1,0,3.33,0V32.77h-.56Z"/><path class="cls-3" d="M69.7,33.93a1.09,1.09,0,0,0-1,.57V34h-.52v3.17h.53V35.33a.83.83,0,0,1,.8-.93c.57,0,.78.37.78.84v1.95h.53v-2A1.1,1.1,0,0,0,69.7,33.93Z"/><path class="cls-3" d="M71.9,32.37a.4.4,0,1,0,0,.79.4.4,0,0,0,0-.79Z"/><rect class="cls-3" x="71.63" y="34.02" width="0.53" height="3.18"/><path class="cls-3" d="M74.44,33.93A1.68,1.68,0,1,0,76,35.6,1.59,1.59,0,0,0,74.44,33.93Zm0,2.88A1.21,1.21,0,1,1,75.5,35.6,1.09,1.09,0,0,1,74.44,36.81Z"/><path class="cls-3" d="M78.22,33.93a1.07,1.07,0,0,0-1,.57V34h-.52v3.17h.53V35.33a.83.83,0,0,1,.8-.93c.57,0,.78.37.78.84v1.95h.53v-2A1.1,1.1,0,0,0,78.22,33.93Z"/><path class="cls-3" d="M25,31.16,23.21,33a1.7,1.7,0,0,1-2.4,0L13.74,25.9A2,2,0,0,1,13.2,25h5.59Z"/><path class="cls-3" d="M38.31,25a2.11,2.11,0,0,1-.53.93h0L30.69,33a1.69,1.69,0,0,1-2.4,0l-8.06-8h6l3.3,3.08L32.72,25Z"/><path class="cls-3" d="M38.32,23.89H32.73L26.5,17.7l1.81-1.81a1.7,1.7,0,0,1,2.41,0L37.77,23A2.08,2.08,0,0,1,38.32,23.89Z"/><path class="cls-3" d="M31.27,23.89h-6L22,20.81l-3.23,3.08H13.2a2,2,0,0,1,.54-.94h0l7.07-7.06a1.7,1.7,0,0,1,2.4,0Z"/></g><g id="VISA_LOGO" data-name="VISA LOGO"><path class="cls-3" d="M201,127.41h.35l-.14.32-.26.65-6.33,15.09-.14.32-.13.33h-4.57l-.09-.35-.18-.69-3.18-12.3a1.84,1.84,0,0,0-1-1.47,16.68,16.68,0,0,0-3.56-1.25l-.36-.09-.34-.08.1-.48h7.36a2,2,0,0,1,2,1.7l1.66,8.81.54-.1,3.86-9.77.13-.31.13-.33H201Z"/><path class="cls-3" d="M219.29,138.66c0-.12,0-.24,0-.35l-.11-.68c-.86-3.43-6-3.79-5.94-5.59,0-.6.58-1.24,1.83-1.4a8,8,0,0,1,3.62.48l.32.12.32.15.08-.35.12-.57.43-2,.06-.29.07-.35-.33-.11-.69-.21a11.05,11.05,0,0,0-3-.42c-4.27,0-7.28,2.27-7.31,5.53,0,2.4,2.15,3.74,3.79,4.54s2.25,1.35,2.24,2.08c0,1.12-1.34,1.62-2.58,1.63a8.58,8.58,0,0,1-3.79-.75l-.33-.15-.32-.15-.08.35-.13.59-.44,2.08-.06.29-.08.35.33.14.66.22a15.5,15.5,0,0,0,3.82.53c4.22,0,7.09-1.94,7.48-5l0-.35c0-.12,0-.24,0-.36"/><path class="cls-3" d="M234.49,143.77l-.14-.7-3.13-15-.07-.35-.07-.34h-3.69a2,2,0,0,0-1.84,1.22l-6.21,14.83-.14.33-.14.33h4.54l.12-.34.22-.61.33-.91.11-.3.12-.34H230l.08.35.12.6.19.9.06.3.08.35h4Zm-8.75-5.57.13-.34.22-.62,1.7-4.67.11-.32.12-.33.07.35.13.62,1,4.65.07.31.07.35Z"/><polygon class="cls-3" points="207.56 127.41 207.48 127.75 207.33 128.45 204.13 143.42 204.06 143.77 203.98 144.12 203.63 144.12 202.91 144.12 200.38 144.12 200.01 144.12 199.66 144.12 199.74 143.77 199.88 143.07 203.09 128.1 203.16 127.75 203.23 127.41 203.59 127.41 204.31 127.41 206.84 127.41 207.2 127.41 207.56 127.41"/></g></g></svg>