<svg id="Layer_1" data-name="Layer 1" xmlns="http://www.w3.org/2000/svg" viewBox="0 0 393.23 303.28">
    <defs>
        <style>.cls-1{fill:#EF6318;}.cls-2,.cls-3,.cls-4{fill:#fff;}.cls-2{fill-opacity:0.3;}.cls-3{fill-opacity:0.85;}.cls-4{fill-rule:evenodd;}</style>
    </defs>
    <g id="_-iOS---Light" data-name="↳-iOS---Light">
        <g id="_6---success" data-name="6---success">
            <g id="Group-2">
                <g id="Group">
                    <g id="Oval">
                        <circle id="path-0qpkiy_auf-1" data-name="path-0qpkiy auf-1" class="cls-1" cx="144.65" cy="300.28" r="3" />
                        <circle id="path-0qpkiy_auf-1-2" data-name="path-0qpkiy auf-1" class="cls-2" cx="144.65" cy="300.28" r="3" />
                    </g>
                    <circle id="Oval-Copy-11" class="cls-1" cx="92.15" cy="244.78" r="2.5" />
                    <circle id="Oval-Copy-7" class="cls-1" cx="326.15" cy="178.78" r="2.5" />
                    <circle id="Oval-Copy-8" class="cls-1" cx="334.15" cy="221.78" r="2.5" />
                    <g id="Oval-Copy-9">
                        <circle id="path-0qpkiy_auf-2" data-name="path-0qpkiy auf-2" class="cls-1" cx="34.15" cy="23.78" r="2.5" />
                        <circle id="path-0qpkiy_auf-2-2" data-name="path-0qpkiy auf-2" class="cls-3" cx="34.15" cy="23.78" r="2.5" />
                    </g>
                    <circle id="Oval-Copy-10" class="cls-1" cx="226.15" cy="22.78" r="2.5" />
                    <circle id="Oval-Copy" class="cls-1" cx="81.65" cy="219.28" r="1" />
                    <circle id="Oval-Copy-2" class="cls-1" cx="87.65" cy="96.28" r="1" />
                    <circle id="Oval-Copy-3" class="cls-1" cx="224.65" cy="75.28" r="1" />
                    <circle id="Oval-Copy-4" class="cls-1" cx="288.65" cy="108.28" r="1" />
                    <circle id="Oval-Copy-5" class="cls-1" cx="369.65" cy="142.28" r="1" />
                    <g id="Oval-Copy-6">
                        <circle id="path-0qpkiy_auf-3" data-name="path-0qpkiy auf-3" class="cls-1" cx="278.65" cy="285.28" r="1" />
                        <circle id="path-0qpkiy_auf-3-2" data-name="path-0qpkiy auf-3" class="cls-3" cx="278.65" cy="285.28" r="1" />
                    </g>
                    <rect id="Rectangle" class="cls-1" x="42.65" y="293.28" width="7" height="7" transform="translate(-223.43 164.36) rotate(-55)" />
                    <g id="Rectangle-Copy">
                        <rect id="path-0qpkiy_auf-4" data-name="path-0qpkiy auf-4" class="cls-1" x="317.65" y="247.28" width="7" height="7" />
                        <rect id="path-0qpkiy_auf-4-2" data-name="path-0qpkiy auf-4" class="cls-2" x="317.65" y="247.28" width="7" height="7" />
                    </g>
                    <g id="Rectangle-Copy-2">
                        <rect id="path-0qpkiy_auf-5" data-name="path-0qpkiy auf-5" class="cls-1" x="304.65" y="77.28" width="5" height="5" transform="translate(45.43 259.25) rotate(-49)" />
                        <rect id="path-0qpkiy_auf-5-2" data-name="path-0qpkiy auf-5" class="cls-2" x="304.65" y="77.28" width="5" height="5" transform="translate(45.43 259.25) rotate(-49)" />
                    </g>
                    <rect id="Rectangle-Copy-3" class="cls-1" x="294.65" y="238.28" width="3" height="3" transform="translate(-79.11 305.98) rotate(-49)" />
                    <rect id="Rectangle-Copy-7" class="cls-1" x="144.65" y="73.28" width="4" height="4" transform="translate(8.13 164.64) rotate(-60)" />
                    <rect id="Rectangle-Copy-8" class="cls-1" x="45.65" y="172.28" width="3" height="3" transform="translate(-126.93 127.72) rotate(-60)" />
                    <rect id="Rectangle-Copy-4" class="cls-1" x="363.65" y="121.28" width="4" height="4" transform="translate(32.72 318.36) rotate(-49)" />
                    <g id="Rectangle-Copy-5">
                        <rect id="path-0qpkiy_auf-6" data-name="path-0qpkiy auf-6" class="cls-1" x="315.65" y="45.28" width="5" height="5" transform="translate(117.69 299.41) rotate(-60)" />
                        <rect id="path-0qpkiy_auf-6-2" data-name="path-0qpkiy auf-6" class="cls-3" x="315.65" y="45.28" width="5" height="5" transform="translate(117.69 299.41) rotate(-60)" />
                    </g>
                    <g id="Rectangle-Copy-6">
                        <rect id="path-0qpkiy_auf-7" data-name="path-0qpkiy auf-7" class="cls-1" x="189.65" y="1.28" width="7" height="7" transform="translate(92.43 169.66) rotate(-60)" />
                        <rect id="path-0qpkiy_auf-7-2" data-name="path-0qpkiy auf-7" class="cls-3" x="189.65" y="1.28" width="7" height="7" transform="translate(92.43 169.66) rotate(-60)" />
                    </g>
                    <g id="Rectangle-Copy-11">
                        <rect id="path-0qpkiy_auf-8" data-name="path-0qpkiy auf-8" class="cls-1" x="64.65" y="74.28" width="7" height="7" transform="translate(-33.29 97.91) rotate(-60)" />
                        <rect id="path-0qpkiy_auf-8-2" data-name="path-0qpkiy auf-8" class="cls-2" x="64.65" y="74.28" width="7" height="7" transform="translate(-33.29 97.91) rotate(-60)" />
                    </g>
                    <rect id="Rectangle-Copy-12" class="cls-1" x="199.65" y="48.28" width="7" height="7" transform="translate(56.73 201.82) rotate(-60)" />
                    <rect id="Rectangle-Copy-9" class="cls-1" x="1.65" y="131.28" width="9" height="9" transform="translate(-114.52 73.21) rotate(-60)" />
                    <g id="Rectangle-Copy-10">
                        <rect id="path-0qpkiy_auf-9" data-name="path-0qpkiy auf-9" class="cls-1" x="377.65" y="257.28" width="13" height="13" transform="translate(-55.05 419.52) rotate(-54)" />
                        <rect id="path-0qpkiy_auf-9-2" data-name="path-0qpkiy auf-9" class="cls-2" x="377.65" y="257.28" width="13" height="13" transform="translate(-55.05 419.52) rotate(-54)" />
                    </g>
                </g>
                <circle id="Oval-2" data-name="Oval" class="cls-1" cx="195.15" cy="176.78" r="79.5" />
                <g id="_3-Icons_1-Material_action_done" data-name="3-Icons/1-Material/action/done">
                    <g id="action_done" data-name="action/done">
                        <polygon id="path-0qpkiy_auf-10" data-name="path-0qpkiy auf-10" class="cls-4" points="187.11 187.68 175.91 176.48 172.18 180.21 187.11 195.15 219.11 163.15 215.38 159.41 187.11 187.68" />
                    </g>
                </g>
            </g>
        </g>
    </g>
</svg>