<svg width="356px" height="73px" id="Layer_1" data-name="Layer 1" xmlns="http://www.w3.org/2000/svg" viewBox="0 0 1113.54 260.16">
    <defs>
        <style>.cls-1{fill:#101820;}</style>
    </defs>
    <path class="cls-1" d="M551.53,161.65h0l0,0Z" />
    <path class="cls-1" d="M551.59,161.62l0,0h0Z" />
    <path class="cls-1" d="M1096.26,37.14V27.3h-3.68V26h8.84V27.3h-3.69v9.84Z" />
    <path class="cls-1" d="M1102.89,37.14V26h2.23l2.64,7.9c.24.74.42,1.29.53,1.65.13-.4.32-1,.59-1.78l2.67-7.77h2V37.14h-1.42V27.8l-3.25,9.34h-1.33l-3.22-9.5v9.5Z" />
    <path class="cls-1" d="M757.78,79.94V55.15H737V24.28l-25.2,3.87V38.77c0,9.24-5,16.38-16,16.38h-5.25V79.94h18.7v48.12C709.26,148,721.87,160,742,160h15.75V135.2h-8.61c-8,0-12.19-2.95-12.19-12V79.94Z" />
    <path class="cls-1" d="M933.76,55.57a64,64,0,0,0-6.51-.42c-8.83,0-23.11,1.68-29.42,15.34V55.15L870.74,59.3v99.21h27.94V111.24c0-22.27,12.39-29.19,26.68-29.19h8.4Z" />
    <path class="cls-1" d="M1005.72,55.57a64,64,0,0,0-6.51-.42c-8.83,0-23.11,1.68-29.42,15.34V55.15L942.7,59.3v99.21h27.94V111.24c0-22.27,12.39-29.19,26.68-29.19h8.4Z" />
    <path class="cls-1" d="M596.43,105.58c0-33.2-19.12-53.57-51-53.57-26.47,0-50.84,21.43-50.84,54.4,0,34.87,25,55.26,53.35,55.26,28.05,0,47.38-20.65,47.38-37.18h-24.7c-3.69,7.87-10.66,13.22-22.47,13.22-13.87,0-25.41-9.88-26.05-23.52H596C596,113.76,596.43,109.56,596.43,105.58ZM522.69,95.07c.62-9.45,8.61-20.38,23.11-20.38,16,0,22.68,10.09,23.1,20.38Z" />
    <path class="cls-1" d="M862.5,105.58c0-33.2-19.12-53.57-51-53.57-26.47,0-50.84,21.43-50.84,54.4,0,34.87,25,55.26,53.35,55.26,28,0,47.38-20.65,47.38-37.18h-24.7c-3.69,7.87-10.65,13.22-22.47,13.22-13.86,0-25.41-9.88-26-23.52h74C862.07,113.76,862.5,109.56,862.5,105.58ZM788.76,95.07c.63-9.45,8.61-20.38,23.11-20.38,16,0,22.69,10.09,23.1,20.38Z" />
    <path class="cls-1" d="M685.4,127.62c0,16.82-13,34-40.1,34h0c-28,0-43.5-17.13-43.5-37.18h24.38a16.68,16.68,0,0,0,5.12,11c3.13,2.91,7.71,4.8,13.79,4.8,9.24,0,13.66-4.83,13.66-10.29,0-4.63-3.15-8.41-11.13-10.09l-13.66-3.16c-19.95-4.4-29-16.38-29-30.87,0-18.49,16.39-33.82,38.65-33.82,28.88,0,38.92,18,40.45,29.21l-23.68,3.62c-1.53-5.6-6.21-11.62-16.56-11.62-7.35,0-13.23,4.41-13.23,10.29a8,8,0,0,0,2.07,5.57A12.89,12.89,0,0,0,640,92.76l14.71,3.14C675.1,100.11,685.4,112.51,685.4,127.62Z" />
    <path class="cls-1" d="M1101.19,123.22V91.29c0-20.8-12.18-39.28-44.94-39.28-26.17,0-40.92,15.89-43.91,31.28l25.2,3.85c2.25-7.14,8.65-12.66,18.91-12.66,11.76,0,17.44,6.1,17.44,13.45a6.57,6.57,0,0,1-1.55,4.54c-1.17,1.37-3.16,2.38-6.23,2.81l-25.41,3.78c-17.23,2.53-30.89,12.81-30.89,31.3,0,16.17,13.45,31.08,35.52,31.08,14.25,0,25.44-6.47,32.33-15.93,5.26,9.27,15.28,14.48,28.56,14.48h7.14V135.2C1105.4,135.2,1101.19,132.25,1101.19,123.22Zm-27.29-6.52c0,18.27-10.92,24-22.69,24-9,0-13.45-5.89-13.45-12,0-8,5.67-12,12.83-13l23.31-3.57Z" />
    <polygon class="cls-1" points="479.69 24.28 453.72 107.72 428.01 28.36 426.72 24.28 401.63 24.28 374.6 107.73 349.75 27.85 348.63 24.28 319.93 24.28 361.28 158.62 387.31 158.62 414.16 74.78 439.85 155.07 440.98 158.62 467.04 158.62 506.08 31.81 508.36 24.28 479.69 24.28" />
    <path class="cls-1" d="M136.9,182.62,116,203.57a19.74,19.74,0,0,1-27.87,0L6.27,121.74A23.94,23.94,0,0,1,0,110.92H64.78Z" />
    <path class="cls-1" d="M290.81,110.92a24.16,24.16,0,0,1-6.24,10.8s0,0,0,0l-82,81.87a19.68,19.68,0,0,1-27.81,0l-93.3-92.73h69l38.24,35.7,37.38-35.7Z" />
    <path class="cls-1" d="M290.84,98.47H226.15l-72.1-71.7L175,5.82a19.69,19.69,0,0,1,27.85,0l81.72,81.72A24,24,0,0,1,290.84,98.47Z" />
    <path class="cls-1" d="M209.26,98.47h-69L102,62.78,64.66,98.47H0A24.14,24.14,0,0,1,6.25,87.55l0,0L88.15,5.77a19.69,19.69,0,0,1,27.8,0Z" />
    <path class="cls-1" d="M402.44,236.35l-.18.61h0c-2.68,9-9.51,14.1-18.74,14.1-10.08,0-20.93-7.3-20.93-23.32,0-7.2,2.23-13.22,6.45-17.43a20.34,20.34,0,0,1,14.48-5.81c9.55,0,16.05,4.9,18.3,13.81l.16.64,8.93-3.13-.14-.54c-3.24-12.33-13.43-19.68-27.25-19.68a30.93,30.93,0,0,0-21.1,8.34c-6.27,5.95-9.59,14.18-9.59,23.8s3.24,17.93,9.36,23.84A30.45,30.45,0,0,0,383.52,260a29,29,0,0,0,17.75-5.6A27.1,27.1,0,0,0,410.85,240l.16-.54Z" />
    <path class="cls-1" d="M440.3,213A14.13,14.13,0,0,0,427,221.12V213.7h-8.82v45.06h9V236.19c0-9.07,4.09-13.66,12.17-13.66a27.51,27.51,0,0,1,3.8.27l.15,0v-9.56l-.1,0A17.19,17.19,0,0,0,440.3,213Z" />
    <path class="cls-1" d="M467.5,212.31c-10.59,0-21.55,8.9-21.55,23.78,0,7.22,2.36,13.36,6.81,17.76a22.32,22.32,0,0,0,15.86,6.31c9.7,0,17.45-5.46,20.24-14.25l0-.11-7.66-2.65-.12,0,0,.12c-2,5.94-6.17,9-12.46,9-7.53,0-13.14-5.61-13.38-13.35h33.7l0-.11a19.58,19.58,0,0,0,.19-2.81C489.15,221.35,480.86,212.31,467.5,212.31Zm-12,19.19a11.86,11.86,0,0,1,12.07-11.21c7.26,0,11.91,4.29,12.17,11.21Z" />
    <path class="cls-1" d="M539.07,258.62a70.47,70.47,0,0,1-.46-8.27V196.51H529.7v23.07a11.75,11.75,0,0,0-4.25-4.66,17.08,17.08,0,0,0-9.32-2.43,20.23,20.23,0,0,0-15.47,7,25.18,25.18,0,0,0-5.9,16.57c0,14.06,8.79,23.88,21.37,23.88,6,0,11.14-2.84,13.75-7.62v.23a38.12,38.12,0,0,0,.47,6.08l0,.1h8.72ZM517,252c-7.91,0-13-6.24-13-15.9,0-9.34,5.26-15.61,13.1-15.61s12.73,6.05,12.73,15.43C529.79,245.53,524.64,252,517,252Z" />
    <rect class="cls-1" x="548.51" y="213.7" width="8.91" height="45.06" />
    <path class="cls-1" d="M552.92,190.42a6.41,6.41,0,1,0,6.46,6.46A6.42,6.42,0,0,0,552.92,190.42Z" />
    <path class="cls-1" d="M582.1,198.25l-8.26,1.3v7.39c0,4.3-2.46,6.76-6.77,6.76h-2.54v8.17h8.57v24.47c0,8.07,4.71,12.89,12.6,12.89a19.38,19.38,0,0,0,6-.85l.08,0v-7.7l-.15,0a17.33,17.33,0,0,1-3.42.37c-4.29,0-6.12-1.8-6.12-6V221.87h9.69V213.7H582.1Z" />
    <path class="cls-1" d="M668.74,196.51v39.58c0,14.62-9.38,24.07-23.88,24.07S621,250.71,621,236.09V196.51h9.28v39.31c0,9.92,5.32,15.61,14.6,15.61s14.5-5.69,14.5-15.61V196.51Z" />
    <path class="cls-1" d="M702,212.4a15.45,15.45,0,0,0-13.66,7.41V213.7h-8.82v45.06h9v-26c0-7.39,4-12.17,10.3-12.17,8.53,0,10.31,6.06,10.31,11.15v27h9V230.23C718.1,219.23,711.91,212.4,702,212.4Z" />
    <rect class="cls-1" x="728.56" y="213.7" width="8.91" height="45.06" />
    <path class="cls-1" d="M733,190.42a6.41,6.41,0,1,0,6.46,6.46A6.42,6.42,0,0,0,733,190.42Z" />
    <path class="cls-1" d="M768.65,212.31c-13.35,0-23,10-23,23.88s9.69,24,23,24,23-10.08,23-24S782,212.31,768.65,212.31ZM778.34,248A13.59,13.59,0,0,1,759,248c-2.72-2.87-4.16-7-4.16-11.84s1.44-8.9,4.16-11.76a13.62,13.62,0,0,1,19.38,0c2.72,2.86,4.16,6.92,4.16,11.76S781.06,245.16,778.34,248Z" />
    <path class="cls-1" d="M822.11,212.4a15.44,15.44,0,0,0-13.66,7.41V213.7h-8.82v45.06h9v-26c0-7.39,4-12.17,10.31-12.17,8.52,0,10.31,6.06,10.31,11.15v27h9V230.23C838.26,219.23,832.07,212.4,822.11,212.4Z" />
</svg>