<svg width="274px" height="112px"   id="Layer_1" data-name="Layer 1" xmlns="http://www.w3.org/2000/svg" viewBox="0 0 793.61 429.65"><defs><style>.cls-1{fill:#101820;}</style></defs><path class="cls-1" d="M231.6,343.59h0l0,0Z"/><path class="cls-1" d="M231.66,343.56l0,0h0Z"/><path class="cls-1" d="M776.33,219.08v-9.84h-3.68v-1.31h8.84v1.31H777.8v9.84Z"/><path class="cls-1" d="M783,219.08V207.93h2.23l2.63,7.89c.25.74.43,1.29.54,1.66.12-.41.32-1,.59-1.79l2.67-7.76h2v11.15h-1.42v-9.34l-3.25,9.34h-1.33l-3.22-9.5v9.5Z"/><path class="cls-1" d="M437.85,261.88V237.09h-20.8V206.22l-25.2,3.87v10.62c0,9.24-5.05,16.38-16,16.38h-5.25v24.79h18.7V310c0,19.95,12.6,31.93,32.77,31.93h15.75V317.14h-8.61c-8,0-12.19-2.95-12.19-12V261.88Z"/><path class="cls-1" d="M613.83,237.51a64,64,0,0,0-6.51-.42c-8.83,0-23.11,1.68-29.42,15.34V237.09l-27.09,4.15v99.21h27.94V293.19c0-22.28,12.39-29.2,26.68-29.2h8.4Z"/><path class="cls-1" d="M685.79,237.51a64,64,0,0,0-6.52-.42c-8.82,0-23.1,1.68-29.41,15.34V237.09l-27.09,4.15v99.21h27.94V293.19c0-22.28,12.39-29.2,26.67-29.2h8.41Z"/><path class="cls-1" d="M276.5,287.52c0-33.2-19.12-53.57-51.05-53.57-26.47,0-50.84,21.43-50.84,54.4,0,34.87,25,55.26,53.35,55.26,28,0,47.38-20.65,47.38-37.18h-24.7C247,314.3,240,319.65,228.17,319.65c-13.87,0-25.41-9.88-26-23.52h73.94C276.06,295.7,276.5,291.5,276.5,287.52ZM202.76,277c.62-9.45,8.61-20.38,23.1-20.38,16,0,22.69,10.09,23.11,20.38Z"/><path class="cls-1" d="M542.57,287.52c0-33.2-19.12-53.57-51.05-53.57-26.47,0-50.84,21.43-50.84,54.4,0,34.87,25,55.26,53.35,55.26,28.05,0,47.38-20.65,47.38-37.18h-24.7c-3.69,7.87-10.65,13.22-22.47,13.22-13.86,0-25.41-9.88-26.05-23.52h73.95C542.14,295.7,542.57,291.5,542.57,287.52ZM468.83,277c.62-9.45,8.61-20.38,23.11-20.38,16,0,22.69,10.09,23.1,20.38Z"/><path class="cls-1" d="M365.47,309.57c0,16.81-13,34-40.1,34h0c-28,0-43.5-17.13-43.5-37.18h24.38a16.68,16.68,0,0,0,5.12,10.95c3.12,2.91,7.71,4.8,13.79,4.8,9.24,0,13.66-4.83,13.66-10.29,0-4.63-3.15-8.41-11.13-10.09L314,298.65c-19.95-4.41-29-16.39-29-30.88C285,249.28,301.4,234,323.66,234c28.88,0,38.92,18,40.45,29.21l-23.68,3.62c-1.53-5.6-6.21-11.62-16.56-11.62-7.35,0-13.23,4.41-13.23,10.29a8,8,0,0,0,2.07,5.57,12.87,12.87,0,0,0,7.38,3.69l14.71,3.14C355.17,282.06,365.47,294.45,365.47,309.57Z"/><path class="cls-1" d="M781.26,305.16V273.23c0-20.8-12.18-39.28-44.94-39.28-26.17,0-40.92,15.89-43.91,31.28l25.2,3.85c2.25-7.14,8.65-12.66,18.91-12.66,11.76,0,17.44,6.1,17.44,13.45a6.57,6.57,0,0,1-1.55,4.54c-1.17,1.37-3.17,2.38-6.23,2.81L720.78,281c-17.23,2.53-30.89,12.81-30.89,31.3,0,16.18,13.45,31.08,35.52,31.08,14.25,0,25.44-6.47,32.33-15.93,5.26,9.27,15.28,14.48,28.56,14.48h7.14V317.14C785.47,317.14,781.26,314.19,781.26,305.16ZM754,298.65c0,18.27-10.92,24-22.69,24-9,0-13.45-5.89-13.45-12,0-8,5.67-12,12.83-13L754,294Z"/><polygon class="cls-1" points="159.75 206.22 133.79 289.66 108.08 210.3 106.79 206.22 81.7 206.22 54.67 289.68 29.82 209.79 28.7 206.22 0 206.22 41.35 340.56 67.38 340.56 94.23 256.72 119.92 337.01 121.05 340.56 147.11 340.56 186.15 213.75 188.43 206.22 159.75 206.22"/><path class="cls-1" d="M267.59,414.46A13.44,13.44,0,0,1,254,424.63c-7.3,0-15.16-5.24-15.16-16.74s7.86-16.67,15.16-16.67c6.88,0,11.71,3.64,13.25,10l.07.26,5-1.73-.06-.22c-2.1-8.19-9.1-13.27-18.26-13.27a20.63,20.63,0,0,0-14.13,5.6c-4.19,4-6.41,9.55-6.41,16,0,14.25,10.33,21.71,20.54,21.71,9.06,0,16.08-5.15,18.32-13.44l.06-.22-4.76-1.74Z"/><path class="cls-1" d="M283,404.11v-5.4H278.1v30.06h5V413.21c0-6.78,3.45-9.67,8.47-9.67a8.93,8.93,0,0,1,2.64.32v-5.34a8.82,8.82,0,0,0-2.14-.25A9.55,9.55,0,0,0,283,404.11Z"/><path class="cls-1" d="M311.34,397.83c-7.6,0-14.25,6.34-14.25,15.82,0,10.1,6.84,16,14.87,16a13.54,13.54,0,0,0,13.37-9.41L321,418.67a8.88,8.88,0,0,1-9,6.46,9.55,9.55,0,0,1-9.72-9.79v-.25H325.4a14.18,14.18,0,0,0,.12-1.76C325.52,404.17,320.44,397.83,311.34,397.83Zm-9,13a9,9,0,0,1,9-8.53c5.71,0,8.79,3.76,8.91,8.53Z"/><path class="cls-1" d="M358.54,386.85h-5v16.69c-1-2.51-4-5.71-9.73-5.71-8.41,0-13.93,7.16-13.93,15.88,0,8.91,5.27,15.94,13.93,15.94a10.58,10.58,0,0,0,9.85-6v.81a27,27,0,0,0,.32,4.33h4.89a38.2,38.2,0,0,1-.31-5.64Zm-14.31,38.28c-5.65,0-9.35-4.77-9.35-11.42s3.64-11.36,9.35-11.36,9.41,4.71,9.41,11.36S349.88,425.13,344.23,425.13Z"/><path class="cls-1" d="M368.34,383.08a3.77,3.77,0,1,0,3.76,3.76A3.77,3.77,0,0,0,368.34,383.08Z"/><rect class="cls-1" x="365.82" y="398.71" width="5.02" height="30.07"/><path class="cls-1" d="M387.29,386.43l-4.71,1.27v6.43c0,2.82-1.32,4.58-4.39,4.58h-1.95v4.52h6v17.32c0,5.46,3.2,8.54,8.16,8.54a13,13,0,0,0,3.95-.57v-4.26a12.75,12.75,0,0,1-2.51.31c-3.2,0-4.58-1.57-4.58-4.71V403.23h7.09v-4.52h-7.09Z"/><path class="cls-1" d="M442.94,413.58c0,7.16-3.77,11.24-10.48,11.24S422,420.74,422,413.58V386.85H416.7v26.86c0,10.36,6.72,15.94,15.76,15.94s15.75-5.58,15.75-15.94V386.85h-5.27Z"/><path class="cls-1" d="M470.18,397.83a10.44,10.44,0,0,0-9.41,5.4v-4.52h-4.9v30.06h5v-17.7c0-4.7,2.7-8.72,7.54-8.72,5.46,0,7.47,3.51,7.47,7.91v18.51h5V409.5C480.92,403,477.4,397.83,470.18,397.83Z"/><path class="cls-1" d="M491,383.08a3.77,3.77,0,1,0,3.77,3.76A3.77,3.77,0,0,0,491,383.08Z"/><rect class="cls-1" x="488.45" y="398.71" width="5.02" height="30.07"/><path class="cls-1" d="M515,397.83c-8.66,0-15.06,6.65-15.06,15.88s6.4,15.94,15.06,15.94,15.07-6.65,15.07-15.94S523.67,397.83,515,397.83Zm0,27.3c-5.39,0-10-4.08-10-11.42s4.65-11.36,10-11.36,10,4.08,10,11.36S520.4,425.13,515,425.13Z"/><path class="cls-1" d="M550.85,397.83a10.46,10.46,0,0,0-9.42,5.4v-4.52h-4.89v30.06h5v-17.7c0-4.7,2.7-8.72,7.53-8.72,5.46,0,7.47,3.51,7.47,7.91v18.51h5V409.5C561.58,403,558.06,397.83,550.85,397.83Z"/><path class="cls-1" d="M390.58,149.33l-17.13,17.13a16.13,16.13,0,0,1-22.78,0L283.76,99.55a19.66,19.66,0,0,1-5.11-8.85h53Z"/><path class="cls-1" d="M516.43,90.7a19.76,19.76,0,0,1-5.1,8.83s0,0,0,0l-67,66.94a16.09,16.09,0,0,1-22.74,0L345.23,90.7h56.42l31.26,29.19L463.48,90.7Z"/><path class="cls-1" d="M516.45,80.52H463.56l-59-58.63L421.72,4.76a16.11,16.11,0,0,1,22.78,0l66.81,66.82A19.68,19.68,0,0,1,516.45,80.52Z"/><path class="cls-1" d="M449.74,80.52H393.33L362.06,51.33,331.5,80.52H278.63a19.73,19.73,0,0,1,5.11-8.93l0,0L350.71,4.71a16.1,16.1,0,0,1,22.73,0Z"/></svg>