<?xml version="1.0" encoding="UTF-8"?>
<svg width="274px" height="56px" viewBox="0 0 137 28" version="1.1" xmlns="http://www.w3.org/2000/svg" xmlns:xlink="http://www.w3.org/1999/xlink">
    <title>WCU_HORIZ_LOGO_HERO_KO_RGB_FINAL</title>
    <g id="Logo" stroke="none" stroke-width="1" fill="none" fill-rule="evenodd">
        <g id="WCU_HORIZ_LOGO_HERO_KO_RGB_FINAL" fill="#FFFFFE" transform="translate(0.000000, 0.062739)">
            <path d="M63.9917477,18.5279363 C63.9936962,18.5279363 63.9936962,18.5279363 63.9956448,18.5279363 L63.999542,18.5240392 L63.9917477,18.5279363" id="Fill-1"></path>
            <path d="M63.999542,18.5240392 L63.9956448,18.5279363 C63.9936962,18.5279363 63.9936962,18.5279363 63.9917477,18.5279363 L63.999542,18.5240392" id="Fill-2"></path>
            <polyline id="Fill-3" points="134.755227 2.35348987 134.755227 1.07534629 134.278473 1.07534629 134.278473 0.904260297 135.42684 0.904260297 135.42684 1.07534629 134.947488 1.07534629 134.947488 2.35348987 134.755227 2.35348987"></polyline>
            <path d="M135.617802,2.35348987 L135.617802,0.904260297 L135.906193,0.904260297 L136.249144,1.93038654 C136.280322,2.02599724 136.303705,2.09744546 136.317994,2.14486109 C136.334882,2.09211932 136.360863,2.01469543 136.395938,1.91258944 L136.742786,0.904260297 L137,0.904260297 L137,2.35348987 L136.815534,2.35348987 L136.815534,1.14055902 L136.394639,2.35348987 L136.221864,2.35348987 L135.802268,1.11990399 L135.802268,2.35348987 L135.617802,2.35348987" id="Fill-4"></path>
            <path d="M90.7854771,7.91345991 L90.7854771,4.6933539 L88.0834356,4.6933539 L88.0834356,0.682900742 L84.8092887,1.18537654 L84.8092887,2.5653663 C84.8092887,3.76569628 84.1540437,4.6933539 82.7354719,4.6933539 L82.0530765,4.6933539 L82.0530765,7.91345991 L84.4827055,7.91345991 L84.4827055,14.1640094 C84.4827055,16.7558908 86.119649,18.311773 88.7386806,18.311773 L90.7854771,18.311773 L90.7854771,15.0917969 L89.6663383,15.0917969 C88.6304691,15.0917969 88.0834356,14.7090943 88.0834356,13.5359147 L88.0834356,7.91345991 L90.7854771,7.91345991" id="Fill-5"></path>
            <path d="M113.646437,4.74726482 C113.371946,4.7202444 113.099404,4.69309408 112.799971,4.69309408 C111.653681,4.69309408 109.798236,4.91185552 108.97879,6.68610951 L108.97879,4.6933539 L105.459121,5.23259305 L105.459121,18.1204217 L109.08895,18.1204217 L109.08895,11.9800324 C109.08895,9.08663956 110.699003,8.18782104 112.554449,8.18782104 L113.646437,8.18782104 L113.646437,4.74726482" id="Fill-6"></path>
            <path d="M122.994332,4.74726482 C122.719841,4.7202444 122.447298,4.69309408 122.147735,4.69309408 C121.001576,4.69309408 119.146131,4.91185552 118.326685,6.68610951 L118.326685,4.6933539 L114.807016,5.23259305 L114.807016,18.1204217 L118.436845,18.1204217 L118.436845,11.9800324 C118.436845,9.08663956 120.046768,8.18782104 121.902343,8.18782104 L122.994332,8.18782104 L122.994332,4.74726482" id="Fill-7"></path>
            <path d="M60.245523,9.8790652 C60.3267141,8.65171481 61.3646618,7.23119442 63.2472573,7.23119442 C65.3210741,7.23119442 66.1946909,8.54155465 66.2487318,9.8790652 L60.245523,9.8790652 Z M69.8243901,11.2435962 C69.8243901,6.93163155 67.3407203,4.28557946 63.1930865,4.28557946 C59.7546088,4.28557946 56.5886735,7.06881212 56.5886735,11.3518077 C56.5886735,15.882274 59.8358,18.5301447 63.5197997,18.5301447 C67.1630091,18.5301447 69.6736993,15.8474592 69.6736993,13.7001156 L66.4652848,13.7001156 C65.9859322,14.7226045 65.0813979,15.4183802 63.5466902,15.4183802 C61.7454158,15.4183802 60.245523,14.1350404 60.1625132,12.362735 L69.7682707,12.362735 C69.7682707,12.3066157 69.8243901,11.7615308 69.8243901,11.2435962 L69.8243901,11.2435962 Z" id="Fill-8"></path>
            <path d="M94.8098302,9.8790652 C94.8908914,8.65171481 95.9288391,7.23119442 97.8114346,7.23119442 C99.8852514,7.23119442 100.758868,8.54155465 100.813039,9.8790652 L94.8098302,9.8790652 Z M104.388697,11.2435962 C104.388697,6.93163155 101.905027,4.28557946 97.7572638,4.28557946 C94.3187861,4.28557946 91.1529807,7.06881212 91.1529807,11.3518077 C91.1529807,15.882274 94.3999772,18.5301447 98.083977,18.5301447 C101.727186,18.5301447 104.237877,15.8474592 104.237877,13.7001156 L101.029462,13.7001156 C100.55011,14.7226045 99.6455751,15.4183802 98.1109974,15.4183802 C96.309723,15.4183802 94.8098302,14.1350404 94.7266904,12.362735 L104.332578,12.362735 C104.332578,12.3066157 104.388697,11.7615308 104.388697,11.2435962 L104.388697,11.2435962 Z" id="Fill-9"></path>
            <path d="M81.3825025,14.1078901 C81.3825025,16.291997 79.693207,18.5281962 76.1735381,18.5301447 L76.1697708,18.5301447 C72.5283802,18.5281962 70.5183471,16.3055072 70.5183471,13.7001156 L73.686101,13.7001156 C73.7287101,14.2316903 73.9451333,14.7437792 74.3509591,15.1227145 C74.7569149,15.5015199 75.3521434,15.7469121 76.1427504,15.7469121 C77.3429505,15.7469121 77.9170044,15.1188173 77.9170044,14.4095314 C77.9170044,13.8084571 77.5071515,13.317413 76.4712823,13.0990413 L74.6968984,12.6893183 C72.1051469,12.117213 70.9300187,10.5613307 70.9300187,8.67886513 C70.9300187,6.27638649 73.0599549,4.28557946 75.9513991,4.28557946 C79.7029499,4.28557946 81.0074644,6.62622292 81.20661,8.07960948 L78.1295303,8.549349 C77.9305146,7.82252582 77.3235945,7.03984312 75.9784195,7.03984312 C75.0236116,7.03984312 74.2601549,7.61389703 74.2601549,8.37735367 C74.2601549,8.6671736 74.3549862,8.90879847 74.5288002,9.10014977 C74.7434047,9.34177464 75.0777823,9.50220835 75.4875053,9.57950233 L77.3990698,9.98727677 C80.0448621,10.5341804 81.3825025,12.1442334 81.3825025,14.1078901" id="Fill-10"></path>
            <path d="M131.851831,12.6893183 C131.851831,15.062698 130.43326,15.8010828 128.903878,15.8010828 C127.730699,15.8010828 127.156645,15.0356776 127.156645,14.2452005 C127.156645,13.2072529 127.892951,12.6893183 128.822687,12.5539564 L131.851831,12.0901925 L131.851831,12.6893183 Z M135.395663,13.5359147 L135.398261,9.38815102 C135.398261,6.68610951 133.814709,4.28557946 129.559123,4.28557946 C126.159357,4.28557946 124.243896,6.34978329 123.855477,8.34838466 L127.129494,8.84891187 C127.421393,7.92112435 128.25253,7.2040441 129.586144,7.2040441 C131.112667,7.2040441 131.851831,7.99659964 131.851831,8.95127768 C131.851831,9.17354657 131.794673,9.37840809 131.650477,9.54079039 C131.497189,9.71863149 131.238676,9.8500962 130.839865,9.90608562 L127.539217,10.3969998 C125.30107,10.7255317 123.526816,12.0612235 123.526816,14.4635723 C123.526816,16.5645395 125.274049,18.5011757 128.140422,18.5011757 C129.99158,18.5011757 131.445226,17.6604251 132.340277,16.4311262 C133.024881,17.6352234 134.325239,18.311773 136.051687,18.311773 L136.979215,18.311773 L136.979215,15.0917969 C135.942566,15.0917969 135.395663,14.7090943 135.395663,13.5359147 L135.395663,13.5359147 Z" id="Fill-11"></path>
            <polyline id="Fill-12" points="54.6590522 0.682900742 51.286047 11.5215947 47.9462977 1.21304648 47.7788491 0.682900742 44.5192517 0.682900742 41.0073771 11.523933 37.7799964 1.1467945 37.634242 0.682900742 33.9060743 0.682900742 39.2775509 18.1348413 42.6586103 18.1348413 46.1465821 7.24340557 49.4846427 17.6732858 49.6314363 18.1348413 53.0162629 18.1348413 58.087657 1.66122164 58.3846218 0.682900742 54.6590522 0.682900742"></polyline>
            <path d="M43.1734271,24.9629521 C42.9381677,25.7904523 42.2804544,26.2844843 41.4137226,26.2844843 C40.4650202,26.2844843 39.4437005,25.6041674 39.4437005,24.11051 C39.4437005,22.6220489 40.4650202,21.9440703 41.4137226,21.9440703 C42.307215,21.9440703 42.9347901,22.4171874 43.1353647,23.2418296 L43.1436787,23.2757351 L43.7935976,23.0507381 L43.7863229,23.0224187 C43.5126113,21.9592693 42.6035302,21.298828 41.4137226,21.298828 C40.731587,21.298828 40.062442,21.5639658 39.5780232,22.0261708 C39.0334579,22.5456642 38.7457164,23.2663818 38.7457164,24.11051 C38.7457164,25.9614084 40.0879036,26.9297266 41.4137226,26.9297266 C42.5901499,26.9297266 43.5022188,26.2607115 43.7937275,25.183922 L43.801392,25.1557324 L43.1827804,24.930086 L43.1734271,24.9629521" id="Fill-13"></path>
            <path d="M45.1748865,23.6185566 L45.1748865,22.9173248 L44.5388674,22.9173248 L44.5388674,26.8232038 L45.1912546,26.8232038 L45.1912546,24.8009596 C45.1912546,23.9203278 45.6396896,23.5452897 46.2919468,23.5452897 C46.406134,23.5452897 46.5283754,23.5534738 46.6343786,23.5859502 L46.6343786,22.8929025 C46.5774798,22.8766643 46.4632926,22.8602962 46.3572894,22.8602962 C45.9250927,22.8602962 45.4276832,23.0477503 45.1748865,23.6185566" id="Fill-14"></path>
            <path d="M47.6909028,24.4911341 C47.7316932,23.9121438 48.1883123,23.3821279 48.8651217,23.3821279 C49.6071439,23.3821279 50.0067342,23.8714833 50.0229725,24.4911341 L47.6909028,24.4911341 Z M48.8569376,22.8031376 C47.8703028,22.8031376 47.0060392,23.6267406 47.0060392,24.8581181 C47.0060392,26.1708167 47.8947251,26.9372611 48.9385185,26.9372611 C49.8435725,26.9372611 50.4551692,26.3908772 50.6752297,25.7141976 L50.1127374,25.5103754 C49.9577597,25.9750486 49.5989598,26.3502166 48.9385185,26.3502166 C48.2372868,26.3502166 47.6745347,25.8202008 47.6745347,25.0781786 L47.6745347,25.0455723 L50.6834138,25.0455723 C50.6915978,24.9884137 50.6997819,24.8987786 50.6997819,24.8171978 C50.6997819,23.6267406 50.0393406,22.8031376 48.8569376,22.8031376 L48.8569376,22.8031376 Z" id="Fill-15"></path>
            <path d="M53.1299305,26.3502166 C52.3960924,26.3502166 51.9149212,25.7305658 51.9149212,24.8661723 C51.9149212,24.0017788 52.3879083,23.390312 53.1299305,23.390312 C53.8719527,23.390312 54.352994,24.0017788 54.352994,24.8661723 C54.352994,25.7305658 53.8637686,26.3502166 53.1299305,26.3502166 Z M54.989013,21.3762518 L54.3367558,21.3762518 L54.3367558,23.5452897 C54.2062004,23.2190961 53.8229782,22.8031376 53.0727719,22.8031376 C51.9801339,22.8031376 51.2626639,23.7327438 51.2626639,24.8661723 C51.2626639,26.0240231 51.9475275,26.9372611 53.0727719,26.9372611 C53.7495814,26.9372611 54.173594,26.5376708 54.352994,26.1545784 L54.352994,26.2605816 C54.352994,26.5132485 54.3774163,26.7334389 54.3937844,26.8232038 L55.0298034,26.8232038 C55.0135652,26.7416229 54.989013,26.480772 54.989013,26.0892358 L54.989013,21.3762518 L54.989013,21.3762518 Z" id="Fill-16"></path>
            <path d="M56.2614407,20.8870264 C55.9922758,20.8870264 55.7722153,21.1072168 55.7722153,21.3762518 C55.7722153,21.6452868 55.9922758,21.8654772 56.2614407,21.8654772 C56.5304757,21.8654772 56.7506661,21.6452868 56.7506661,21.3762518 C56.7506661,21.1072168 56.5304757,20.8870264 56.2614407,20.8870264" id="Fill-17"></path>
            <polygon id="Fill-18" points="55.9352472 26.8232038 56.5876343 26.8232038 56.5876343 22.9173248 55.9352472 22.9173248"></polygon>
            <path d="M58.7236761,21.322211 L58.1120793,21.4869316 L58.1120793,22.3220963 C58.1120793,22.6889504 57.9408634,22.9173248 57.541403,22.9173248 L57.2884763,22.9173248 L57.2884763,23.5044992 L58.0712889,23.5044992 L58.0712889,25.7548581 C58.0712889,26.4644039 58.4871175,26.8638643 59.1313206,26.8638643 C59.3841174,26.8638643 59.5717014,26.8150197 59.6450982,26.7905974 L59.6450982,26.2360294 C59.5798855,26.2523975 59.4330919,26.2768198 59.3189046,26.2768198 C58.903076,26.2768198 58.7236761,26.0728676 58.7236761,25.6652231 L58.7236761,23.5044992 L59.6450982,23.5044992 L59.6450982,22.9173248 L58.7236761,22.9173248 L58.7236761,21.322211" id="Fill-19"></path>
            <path d="M65.9529362,24.8499341 C65.9529362,25.7794104 65.4635808,26.3094262 64.5911332,26.3094262 C63.7186856,26.3094262 63.2294602,25.7794104 63.2294602,24.8499341 L63.2294602,21.3762518 L62.5444667,21.3762518 L62.5444667,24.8661723 C62.5444667,26.2116071 63.4169143,26.9372611 64.5911332,26.9372611 C65.7653521,26.9372611 66.6377998,26.2116071 66.6377998,24.8661723 L66.6377998,21.3762518 L65.9529362,21.3762518 L65.9529362,24.8499341" id="Fill-20"></path>
            <path d="M69.4920909,22.8031376 C68.9784432,22.8031376 68.5218242,23.0477503 68.2690274,23.5044992 L68.2690274,22.9173248 L67.6330084,22.9173248 L67.6330084,26.8232038 L68.2853955,26.8232038 L68.2853955,24.5237405 C68.2853955,23.9121438 68.6358815,23.390312 69.2638464,23.390312 C69.9732622,23.390312 70.2341131,23.846931 70.2341131,24.4177373 L70.2341131,26.8232038 L70.8865002,26.8232038 L70.8865002,24.3199182 C70.8865002,23.471763 70.4297513,22.8031376 69.4920909,22.8031376" id="Fill-21"></path>
            <path d="M72.1915343,20.8870264 C71.9223694,20.8870264 71.7023089,21.1072168 71.7023089,21.3762518 C71.7023089,21.6452868 71.9223694,21.8654772 72.1915343,21.8654772 C72.4605693,21.8654772 72.6807597,21.6452868 72.6807597,21.3762518 C72.6807597,21.1072168 72.4605693,20.8870264 72.1915343,20.8870264" id="Fill-22"></path>
            <polygon id="Fill-23" points="71.8653407 26.8232038 72.5177279 26.8232038 72.5177279 22.9173248 71.8653407 22.9173248"></polygon>
            <path d="M75.3146007,26.3502166 C74.6133689,26.3502166 74.0099563,25.8202008 74.0099563,24.8661723 C74.0099563,23.9203278 74.6133689,23.390312 75.3146007,23.390312 C76.0158324,23.390312 76.619245,23.9203278 76.619245,24.8661723 C76.619245,25.8202008 76.0158324,26.3502166 75.3146007,26.3502166 Z M75.3146007,22.8031376 C74.1893563,22.8031376 73.3576991,23.6674012 73.3576991,24.8661723 C73.3576991,26.0728676 74.1893563,26.9372611 75.3146007,26.9372611 C76.4398451,26.9372611 77.2716322,26.0728676 77.2716322,24.8661723 C77.2716322,23.6674012 76.4398451,22.8031376 75.3146007,22.8031376 L75.3146007,22.8031376 Z" id="Fill-24"></path>
            <path d="M79.9705559,22.8031376 C79.4569082,22.8031376 79.0002892,23.0477503 78.7474924,23.5044992 L78.7474924,22.9173248 L78.1114734,22.9173248 L78.1114734,26.8232038 L78.7638606,26.8232038 L78.7638606,24.5237405 C78.7638606,23.9121438 79.1144764,23.390312 79.7423114,23.390312 C80.4517272,23.390312 80.7125781,23.846931 80.7125781,24.4177373 L80.7125781,26.8232038 L81.3649652,26.8232038 L81.3649652,24.3199182 C81.3649652,23.471763 80.9083462,22.8031376 79.9705559,22.8031376" id="Fill-25"></path>
            <path d="M14.5424394,19.3988251 L12.3176719,21.6235926 C11.4996548,22.4401807 10.1757844,22.4401807 9.35763742,21.6235926 L0.665637534,12.9315927 C0.352044832,12.618 0.119773186,12.2229563 0.00298783437,11.7821858 L6.88150217,11.7821858 L14.5424394,19.3988251" id="Fill-26"></path>
            <g id="Group-31">
                <path d="M30.8910896,11.7821858 C30.7743042,12.2215273 30.5404737,12.6164411 30.22831,12.9300338 C30.226881,12.9300338 30.226881,12.9315927 30.2254521,12.9330216 L21.517084,21.6295682 C20.7020548,22.4445975 19.3810423,22.4460264 18.5630252,21.6325561 L8.65211879,11.7821858 L15.9802372,11.7821858 L20.042263,15.5750467 L24.0125753,11.7821858 L30.8910896,11.7821858" id="Fill-27"></path>
                <path d="M30.8939475,10.4597443 L24.0229677,10.4597443 L16.3634595,2.84310499 L18.5882269,0.618337539 C19.4046851,-0.198250584 20.7301144,-0.198250584 21.5467026,0.618337539 L30.226881,9.29851599 C30.5434616,9.61509653 30.7771622,10.0129981 30.8939475,10.4597443" id="Fill-29"></path>
                <path d="M22.2285783,10.4597443 L14.9004599,10.4597443 L10.8384341,6.66844232 L6.86812186,10.4597443 L0,10.4597443 C0.115356388,10.0144271 0.349056997,9.61652549 0.664078664,9.29994496 L0.668625369,9.29552816 L9.36361309,0.61236187 C10.1786423,-0.202667383 11.4996548,-0.204096347 12.3161131,0.607945071 L22.2285783,10.4597443" id="Fill-30"></path>
            </g>
        </g>
    </g>
</svg>