<svg width="356px" height="73px"  id="Layer_1" data-name="Layer 1" xmlns="http://www.w3.org/2000/svg" viewBox="0 0 793.61 137.39"><defs><style>.cls-1{fill:#e2352a;}</style></defs><path class="cls-1" d="M776.33,12.86V3h-3.68V1.7h8.84V3H777.8v9.84Z"/><path class="cls-1" d="M783,12.86V1.7h2.23l2.63,7.9q.38,1.11.54,1.65c.12-.4.32-1,.59-1.78l2.67-7.77h2V12.86h-1.42V3.52l-3.25,9.34h-1.33l-3.22-9.5v9.5Z"/><path class="cls-1" d="M437.85,55.66V30.87h-20.8V0l-25.2,3.87V14.49c0,9.24-5.05,16.38-16,16.38h-5.25V55.66h18.7v48.12c0,20,12.6,31.92,32.77,31.92h15.75V110.92h-8.61c-8,0-12.19-3-12.19-12V55.66Z"/><path class="cls-1" d="M613.83,31.29a64,64,0,0,0-6.51-.42c-8.83,0-23.11,1.68-29.42,15.34V30.87L550.81,35v99.21h27.94V87c0-22.27,12.39-29.19,26.68-29.19h8.4Z"/><path class="cls-1" d="M685.79,31.29a64,64,0,0,0-6.52-.42c-8.82,0-23.1,1.68-29.41,15.34V30.87L622.77,35v99.21h27.94V87c0-22.27,12.39-29.19,26.67-29.19h8.41Z"/><path class="cls-1" d="M276.5,81.3c0-33.2-19.12-53.57-51.05-53.57-26.47,0-50.84,21.43-50.84,54.4,0,34.87,25,55.26,53.35,55.26,28,0,47.38-20.65,47.38-37.18h-24.7c-3.69,7.87-10.66,13.22-22.47,13.22-13.87,0-25.41-9.88-26-23.52h73.94C276.06,89.48,276.5,85.28,276.5,81.3ZM202.76,70.79c.62-9.45,8.61-20.38,23.1-20.38,16,0,22.69,10.09,23.11,20.38Z"/><path class="cls-1" d="M542.57,81.3c0-33.2-19.12-53.57-51.05-53.57-26.47,0-50.84,21.43-50.84,54.4,0,34.87,25,55.26,53.35,55.26,28.05,0,47.38-20.65,47.38-37.18h-24.7c-3.69,7.87-10.65,13.22-22.47,13.22-13.86,0-25.41-9.88-26.05-23.52h73.95C542.14,89.48,542.57,85.28,542.57,81.3ZM468.83,70.79c.62-9.45,8.61-20.38,23.11-20.38,16,0,22.69,10.09,23.1,20.38Z"/><path class="cls-1" d="M365.47,103.34c0,16.82-13,34-40.1,34h0c-28,0-43.5-17.13-43.5-37.18h24.38a16.68,16.68,0,0,0,5.12,11c3.12,2.91,7.71,4.8,13.79,4.8,9.24,0,13.66-4.83,13.66-10.29,0-4.63-3.15-8.41-11.13-10.09L314,92.42C294.05,88,285,76,285,61.55c0-18.49,16.39-33.82,38.65-33.82,28.88,0,38.92,18,40.45,29.21l-23.68,3.61c-1.53-5.59-6.21-11.62-16.56-11.62-7.35,0-13.23,4.42-13.23,10.3a8,8,0,0,0,2.07,5.57,12.86,12.86,0,0,0,7.38,3.68l14.71,3.14C355.17,75.83,365.47,88.23,365.47,103.34Z"/><path class="cls-1" d="M781.26,98.94V67c0-20.8-12.18-39.28-44.94-39.28-26.17,0-40.92,15.89-43.91,31.28l25.2,3.85c2.25-7.14,8.65-12.66,18.91-12.66,11.76,0,17.44,6.1,17.44,13.45a6.57,6.57,0,0,1-1.55,4.54c-1.17,1.37-3.17,2.38-6.23,2.81l-25.41,3.78c-17.23,2.53-30.89,12.81-30.89,31.3,0,16.17,13.45,31.08,35.52,31.08,14.25,0,25.44-6.47,32.33-15.93C763,130.5,773,135.7,786.3,135.7h7.14V110.92C785.47,110.92,781.26,108,781.26,98.94ZM754,92.42c0,18.27-10.92,24-22.69,24-9,0-13.45-5.89-13.45-12,0-8,5.67-12,12.83-13L754,87.81Z"/><polygon class="cls-1" points="159.75 0 133.79 83.44 108.08 4.08 106.79 0 81.7 0 54.67 83.45 29.82 3.57 28.7 0 0 0 41.35 134.34 67.38 134.34 94.23 50.5 119.92 130.79 121.05 134.34 147.11 134.34 186.15 7.53 188.43 0 159.75 0"/></svg>